<?xml version="1.0" encoding="utf-8"?>
<!-- Generator: Adobe Illustrator 25.2.3, SVG Export Plug-In . SVG Version: 6.00 Build 0)  -->
<svg version="1.1" id="Layer_1" xmlns="http://www.w3.org/2000/svg" xmlns:xlink="http://www.w3.org/1999/xlink" x="0px" y="0px"
	 viewBox="0 0 6054.98 2145.11" style="enable-background:new 0 0 6054.98 2145.11;" xml:space="preserve">
<style type="text/css">
	.st0{fill:#16B768;}
	.st1{opacity:0.25;}
	.st2{fill:#390175;}
	.st3{opacity:0.6;}
	.st4{fill:#FFFFFF;}
	.st5{fill:#89EA7F;}
	.st6{font-family:'Poppins-Bold';}
	.st7{font-size:612.2808px;}
	.st8{font-family:'Poppins-Regular';}
	.st9{font-size:204.2398px;}
</style>
<g>
	<g>
		<path d="M1144.02,1208.16c166.27-36.52,277.76-193.31,242.55-354.24c-7.93-36.24-25.81-67.71-47.78-97.09
			c-72.73-97.24-163.48-174-268.03-234.85c-19.13-11.13-36.22-25.85-59.48-33.01c16.97-9.43,32.34-5.31,47.45-1
			c156.39,44.67,288.09,127.15,386.36,258.07c110.7,147.48,142.64,312.78,105.1,492.41c-4.16,19.9-6.25,40.47-12.59,59.65
			c-22.21,67.16-2.15,119.93,48.32,166.91c41.32,38.47,82.67,78.14,103.92,132.88c1.87,4.8,5.94,9.16,0.52,16.91
			c-21.29-10.34-44.24-18.89-64.43-31.77c-67-42.74-134.54-38.43-205.56-10.27c-77.76,30.84-156.48,59.96-239.72,73.19
			c-47.56,7.56-95.27,10.86-143.31-5.08c135.67-28,257.84-89.85,383.05-145.32c-40.67-10.6-78.62-1.29-115.99,8.59
			c-114.72,30.32-224.46,76.54-339.86,105.27c-109.73,27.32-219.52,48.33-341.41,35.81c195.86-47.59,370.62-128.06,543.33-215.07
			c-12.85-9.88-24.19-4.56-35.12-0.6c-99.49,36.04-197.29,77.82-298.66,107.36c-214.77,62.59-431.36,118.96-657.85,117.85
			c-9.63-0.05-19.33-0.05-28.88-1.12c-16.87-1.9-33.65-4.6-50.45-6.96c-0.37-13.13,9.93-9.99,15.99-11.56
			c78.66-20.4,160.1-29.2,237-56.98c8.04-2.91,16.38-5.21,24.03-8.91c30.99-15.02,34.27-29.24,9.18-52.37
			c-125.79-115.96-159.07-266.11-150.23-427.23c18.84-343.3,278.11-586.27,612.86-621.91c52.58-5.6,53.07-5.29,72.55,44.2
			c64.2,163.05,52.33,319.83-39.61,469.81c-8.15,13.3-15.85,26.89-27.33,46.43c101.14-44.04,157.88-113.2,169.31-217.21
			c6.77-61.69,16.39-123.17,13.09-185.6c-0.37-6.95-3.01-16.69,5.66-19.99c8.62-3.28,12.37,6.25,17.54,11.06
			c61.3,57.17,113.77,121.78,158.76,192.29c34.18,53.56,19.48,119.18-16.23,161.49c-90.76,107.53-218.42,120.89-342.32,144.21
			c-68.14,12.83-137.64,18.45-206.53,27.33c-3.18,0.41-6.56,0.37-9.48,1.5c-8.2,3.16-22.52,0.97-21.95,12.95
			c0.59,12.44,13.68,9.51,23.04,10.57c23.41,2.65,46.59-7.09,69.96-0.82c8.65,24.09,17.26,5.15,25.89-0.02
			c33.9-4.12,67.81-3.69,101.73-0.38c8.97,9.6,17.73,12.39,26.02-0.78c128-1.07,241.35-49.06,350.93-109.3
			c5.49-3.02,11.83-4.49,21.77-8.15c0.81,37.05-19.19,61.08-39.01,85.23c-19.49,23.73-46.89,40.95-58.56,71.12
			c-0.99,1.55-3.2,3.82-2.78,4.51C1138.86,1211.59,1141.57,1210.42,1144.02,1208.16z M324.46,1115.07
			c-6.22-94.68,19.26-181.86,63.29-264.44c73.95-138.68,190.66-227.72,333.5-286.35c16.43-6.74,32.18-15.12,48.25-22.73
			c-23.75-2.68-43.23,5.71-63.39,12.27c-238.79,77.68-406.1,300.42-412.36,551.66c-0.48,19.46-5.74,29.85-32.51,31.52
			c14.11,5.42,19.94,7.66,25.77,9.9c3.8,2.62,7.61,5.23,11.41,7.85c-2.77,104.88,31.9,199.15,82.83,288.5
			c13.15,23.07,26.89,46.12,45.46,65.61c14.01,14.71,29.67,16.58,45.66,4.19c16.41-12.72,17.76-28.33,4.94-44.6
			c-7.25-9.2-14.93-18.11-23-26.59c-54.92-57.72-88.73-127.22-114.21-201.69c-4.52-13.21,4.7-32.45,2.57-33.52
			c-20.6-10.33-15.56-28.53-16.99-44.82c43.22,11.92,86.58,23.37,129.55,36.14c8.63,2.56,25.9,1.64,21.24,16.69
			c-2.71,8.76-18.02,5.47-26.16,2.33c-27.5-10.63-54.59-5.02-89.03-3.19c84.41,39.9,172.59,44.76,250.1,83.03
			c-76.76,0.61-148.78-39.5-231.94-24.54c9.26,4.85,14.41,7.78,19.74,10.31c100.97,47.9,207.9,78.53,315.05,108.46
			c53.74,15.01,104.85,9.23,155.86-14.92c87.13-41.25,176.82-76.98,271.75-95.88c75.66-15.06,151.99-27.42,226.5,8.35
			c56.83,27.29,79.97,16.73,100.99-43.11c19.85-56.49,21.57-115.66,23.84-174.32c2.41-62.28,0.54-124.72,0.54-189.7
			c-13.89,10.12-17.01,23.1-22.6,34.04c-31.68,61.95-64.05,123.52-104.1,180.54c-62.43,88.9-145.31,145.37-256.41,148.86
			c-140.6,4.43-279.29-13.49-416.58-43.4c-97.27-21.2-191.05-59.05-292.26-61.55c-6.19-20.01-22.79-10.07-34.77-11.16
			C351.48,1127.39,335.21,1130.54,324.46,1115.07z"/>
		<path d="M621.34,312.14c71.07-29.95,144.91-23.84,219.38-20.04c36.92,1.89,75.47-0.28,106.96-28.99
			c22.33-20.35,48.16-37.46,74.24-52.94c21.59-12.81,37.8-3,31.63,20.45c-16.39,62.27,1.09,128-22.23,189.29
			c-4.23,11.12-8.92,16.43-19.72,21.6c-47.73,22.86-94.76,5-140.61-3.26c-67.11-12.09-132.82-11.5-199,2.42
			c-8.92-1.03-16.98,1.26-23.85,6.91c-8.18,6.72-18.64,10.49-25.91,3.08c-8.32-8.48-0.96-17.19,6.27-24.28
			c2.94-2.89,4.11-7.56,7.01-10.5c8.43-8.56,18.35-17.46,8.17-29.73c-10.18-12.26-22.22-9.36-36.8-3.93
			c-21.57,8.02-42.76,16.45-63.3,26.73c-7.63,3.82-17.05,8.55-23.39,0.42c-7.25-9.29,1-15.7,6.49-24.16
			C549.89,349.43,592.02,339.25,621.34,312.14z"/>
		<path d="M864.42,1164.73c-8.28,13.17-17.05,10.38-26.02,0.78C846.99,1162.4,855.68,1162.67,864.42,1164.73z"/>
		<path d="M736.67,1165.9c-8.62,5.18-17.23,24.11-25.89,0.02C719.41,1165.92,728.04,1165.91,736.67,1165.9z"/>
		<path d="M338.83,1138.89c-10.23-4.66-18.62-10.43-14.37-23.82c10.74,15.47,27.01,12.32,42.54,13.72
			c11.99,1.08,28.58-8.85,34.77,11.16C380.79,1139.6,359.81,1139.24,338.83,1138.89z"/>
		<path d="M1144.02,1208.16c-2.45,2.26-5.17,3.43-7.25-0.02c-0.42-0.69,1.79-2.96,2.78-4.51
			C1141.07,1205.11,1142.56,1206.62,1144.02,1208.16z"/>
	</g>
</g>
<text transform="matrix(1 0 0 1 2327.7573 1143.3558)" class="st6 st7">ARYA JAYA</text>
<text transform="matrix(1 0 0 1 2337.5474 1469.9857)" class="st8 st9">REFRIGERATOR &amp; AIRCONDITIONING</text>
</svg>
