<?xml version="1.0" encoding="utf-8"?>
<!-- Generator: Adobe Illustrator 25.2.3, SVG Export Plug-In . SVG Version: 6.00 Build 0)  -->
<svg version="1.1" id="Layer_1" xmlns="http://www.w3.org/2000/svg" xmlns:xlink="http://www.w3.org/1999/xlink" x="0px" y="0px"
	 viewBox="0 0 4469.46 2145.11" style="enable-background:new 0 0 4469.46 2145.11;" xml:space="preserve">
<style type="text/css">
	.st0{fill:#16B768;}
	.st1{opacity:0.25;}
	.st2{fill:#390175;}
	.st3{opacity:0.6;}
	.st4{fill:#FFFFFF;}
	.st5{fill:#89EA7F;}
	.st6{font-family:'Poppins-Bold';}
	.st7{font-size:612.2808px;}
	.st8{font-family:'Poppins-Regular';}
	.st9{font-size:204.2398px;}
</style>
<text transform="matrix(1 0 0 1 2084.4495 1373.2026)" class="st6 st7">Garut</text>
<text transform="matrix(1 0 0 1 2109.9651 826.0508)" class="st8 st9">Kabupaten</text>
<g>
	<path d="M1662.2,1264.38c6.95-32.61,11.24-65.59,13.78-98.82c0.4-5.26,1.22-10.64-0.15-17.03c-12.69,20.08-25.83,38.28-41.05,54.87
		c-15.31,16.7-31.97,31.77-52.21,43.44c-14.22-37.14-34.31-69.65-57.9-100.34c-2.06,1.9-1.48,3.57-1.59,5.03
		c-2.27,31.67-6.92,62.96-14.95,93.7c-14.44,55.28-38.56,105.52-77.76,147.76c-2.45,2.65-2.5,4.39-0.66,7.41
		c11.7,19.15,23.19,38.44,34.7,57.71c3.73,6.27,4.31,4.98-1.52,10.19c-45.24,40.37-92.92,77.53-144.87,108.96
		c-77.57,46.92-160.18,79.2-251.46,86.28c-44.79,3.46-89.22,1.11-133.29-7.61c-51.06-10.11-99.48-27.8-145.87-51.23
		c-71.76-36.26-135.41-84.04-195.33-137.16c-3.21-2.84-3.37-4.83-1.14-8.47c11.75-19.12,23.07-38.51,34.82-57.63
		c2.38-3.87,2.15-6.04-0.99-9.43c-20.09-21.63-36.31-45.96-49.42-72.4c-23.78-47.97-35.58-99.17-41.04-152.07
		c-0.71-6.89-1.37-13.79-2.18-22.1c-24.47,31.97-44.64,64.6-58.78,101.62c-40.09-24.55-68.29-59.67-93.78-99.29
		c-0.16,2.5-0.28,3.21-0.24,3.91c1.62,30.08,4.93,59.96,10.16,89.65c10.08,57.23,26.6,112.43,51.38,165.05
		c2.29,4.88,1.75,7.71-1.7,11.65c-18.45,21.08-36.58,42.45-54.8,63.73c-4.19,4.9-4.21,4.96-0.37,9.56
		c57.52,68.9,121.42,131.05,194.61,183.29c127.98,91.35,269.66,143.04,427.69,147.41c46.91,1.3,93.54-1.36,139.85-8.7
		c96.58-15.3,186.59-48.84,270.5-98.88c98.74-58.89,182.13-135.36,255.53-223.26c3.72-4.46,3.72-4.58-0.1-9.04
		c-18.05-21.09-36.04-42.24-54.3-63.14c-3.88-4.45-4.96-7.73-2.12-13.7C1637.02,1360.32,1651.83,1313.07,1662.2,1264.38z
		 M400.04,1202.91c5.82,6.24,11.59,12.53,17.47,18.72c6.19,6.53,12.86,12.55,19.76,18.31c6.7,5.59,13.62,10.9,21.01,15.55
		c7.35,4.61,14.75,9.15,22.73,14.1c10.35-28.73,22.16-55.94,39.83-81.56c2.43,7.35,2.61,13.93,3.71,20.27
		c9.95,57.39,28.52,111.42,61.71,159.83c6.28,9.16,13.07,17.93,20.25,26.4c1.72,2.03,3.55,3.83,1.68,6.91
		c-10.36,17.14-20.62,34.35-31.37,52.31c-9-8.47-17.44-16.32-25.75-24.29c-19.26-18.48-37.95-37.54-56.21-57.02
		c-1.45-1.54-2.9-3.08-4.4-4.57c-4.33-4.28-4.39-4.32-8.33,0.22c-8.99,10.35-17.91,20.76-27.88,32.32
		C423.97,1337.26,406.67,1271.85,400.04,1202.91z M1653.14,1483.26c2.81,3.25,1.99,5.07-0.42,7.9
		c-24.84,29.25-51.13,57.12-78.79,83.71c-43.56,41.9-90.49,79.58-141.37,112.27c-76.55,49.17-158.94,84.5-247.93,103.94
		c-37.7,8.23-75.9,13.32-114.49,15.37c-14,0.75-27.99,1.03-42.02,1.13c-110.59-0.02-215.88-23.56-315.82-71.05
		c-67.52-32.08-129.07-73.23-185.94-121.58c-43.21-36.73-82.88-76.99-119.84-119.96c-6.72-7.81-6.8-7.84,0.04-15.83
		c25.26-29.53,50.55-59.03,75.84-88.53c4.15-4.85,4.22-4.87,8.88-0.05c30.37,31.33,61.26,62.12,93.93,91.08
		c55.37,49.07,114.21,93.3,179.54,128.43c53.39,28.71,109.45,50.12,169.16,61.44c19.73,3.74,39.59,6.28,59.64,7.65
		c13.73,0.94,27.44,1.43,41.19,1.22c45.41-0.68,89.92-7.39,133.6-19.84c63.07-17.98,121.2-46.53,176.14-81.94
		c55.51-35.79,106.3-77.53,154.39-122.69c22.57-21.18,44.46-43.02,65.8-65.42c4.47-4.71,4.65-4.74,8.85,0.15
		C1600.06,1421.52,1626.51,1452.47,1653.14,1483.26z M1601.72,1400.38c-11.03-12.77-21.31-24.67-31.78-36.79
		c-15.21,15.59-29.81,30.82-44.72,45.76c-14.9,14.93-29.82,29.87-46.12,44.17c-7.83-12.95-15.33-25.35-22.81-37.75
		c-2.45-4.07-4.6-8.36-7.35-12.21c-2.64-3.69-2.26-6.23,0.79-9.6c9.41-10.4,17.57-21.81,25.19-33.58
		c26.01-40.23,42.4-84.32,52.38-130.95c2.71-12.64,5.19-25.35,6.66-38.22c0.09-0.71,0.01-1.65,1.98-2
		c16.75,24.33,28.67,51.41,38.82,79.93c32.41-16.69,58.67-39.82,82.08-66.8C1649.38,1271.17,1632.24,1337.03,1601.72,1400.38z"/>
	<path d="M1522.61,547.86c5.19-8.23,10.65-16.29,16.21-24.78c-41.87-26.72-80.53-56.89-114.13-93.19
		c-33.68-36.39-60.37-77.29-78.6-123.42c-1.07,0.3-1.63,0.34-2.06,0.6c-2.28,1.33-4.53,2.71-6.8,4.07
		c-46.64,28.16-95,52.81-146.56,70.77c-63.56,22.15-128.7,33.05-196.17,27.81c-39.68-3.09-78.31-11.2-116.12-23.41
		c-56.57-18.27-109.28-44.76-160.02-75.4c-2.62-1.58-5.3-3.05-8.26-4.74c-1.19,2.83-2.12,4.98-3.03,7.14
		c-9.28,22.24-20.61,43.4-33.93,63.47c-30.46,45.92-69.22,83.82-113.1,116.75c-13.72,10.3-28,19.82-42.92,29.71
		c1.79,2.67,3.07,4.65,4.42,6.58c40.51,57.86,64.26,122.11,72.58,192.07c4.13,34.71,4.57,69.55,2.57,104.49
		c-2.43,42.5-7.99,84.61-14.14,126.67c-4.16,28.48-8.68,56.92-12.17,85.51c-2.08,17.04-3.77,34.1-5.07,51.22
		c-1.72,22.46-2.1,44.94-0.4,67.33c1.53,20.23,4.42,40.38,7.23,60.49c7.2,51.43,26.1,98.24,56.25,140.52
		c27.16,38.08,61.1,69.28,98.64,96.76c36.95,27.05,76.56,49.8,116.77,71.53c34.59,18.7,69.69,36.47,103.62,56.37
		c27.86,16.33,55.04,33.66,77.33,57.48c2.9,3.1,4.33,2.22,6.77-0.39c13.99-14.94,30.2-27.23,47.18-38.54
		c28.4-18.91,58.5-34.84,88.54-50.9c43.29-23.15,86.86-45.8,128.13-72.52c38.98-25.23,75.51-53.4,106.72-88.04
		c43.55-48.34,71.43-104.23,81.24-168.78c2.07-13.58,3.45-27.25,5.35-40.86c3.57-25.48,4.32-51.08,3.04-76.74
		c-2.22-44.38-8.99-88.25-15.49-132.14c-6.38-43.12-12.66-86.23-15.98-129.73c-3.07-40.18-3.03-80.23,1.79-120.29
		C1469.52,659.06,1489.11,601.03,1522.61,547.86z M1447.34,865.93c1.43,14.45,3.24,28.87,4.88,43.31
		c5.42,37.27,10.84,74.55,16.23,111.83c0.26,1.82,0.15,3.68,0.21,5.53c1.56,8.47,2.95,16.97,3.13,25.61
		c2.37,13.61,3.63,27.32,3.69,41.13c1.87,7.7,1.19,15.52,1.03,23.32c0.75,11.7,0.17,23.4-0.11,35.1c-0.03,1.31-0.17,2.6-1.28,3.53
		c0.79,7.69-0.4,15.25-1.62,22.8c-2.91,17.97-3.88,36.18-7.54,54.07c-7,34.22-19.11,66.39-37.11,96.32
		c-19.51,32.45-44.41,60.27-72.79,85.19c-34.73,30.48-73.29,55.31-113.16,78.32c-36.38,21-73.91,39.86-110.7,60.08
		c-25.23,13.86-50.3,28.01-73.71,44.87c-8.79,6.34-17.28,13.05-25.36,20.27c-4.82,4.32-5.37,4.55-9.89,0.48
		c-32.75-29.41-71.1-50.15-109.4-70.97c-41.52-22.58-83.75-43.87-124.15-68.49c-40.94-24.95-79.94-52.49-113.62-86.9
		c-36.23-37-63.44-79.61-78.59-129.43c-6.69-22-10.97-44.48-12.78-67.47c-0.79-9.97-2.6-19.86-3.95-29.79
		c-0.43-3.14-0.95-6.27-0.21-9.44c-1.99-12.72-1.87-25.51-1.28-38.32c-0.35-7.92,0.08-15.8,1.17-23.65
		c-0.01-13.8,1.62-27.45,3.64-41.07c0.83-9.21,1.54-18.43,3.66-27.47c0.59-14.78,3.91-29.2,5.8-43.8
		c2.67-20.61,5.87-41.17,8.81-61.75c0.74-5.2,1.37-10.42,2.07-15.63c2.57-18.57,4.41-37.23,5.92-55.92
		c1.2-14.76,1.66-29.54,2.13-44.33c1.63-51.31-3.2-101.92-16.86-151.46c-11.67-42.31-29.76-81.83-53.71-118.64
		c-1.14-1.75-2.24-3.53-3.75-5.89c76.5-51.3,140.33-113.89,178.81-198.97c4.53,1.15,7.7,3.63,11.09,5.59
		c51.35,29.74,104.72,54.83,161.86,71.45c32.54,9.46,65.61,15.86,99.41,18.76c75.65,6.49,148.34-6.38,219.03-32.77
		c42.42-15.84,82.77-35.96,121.85-58.73c1.14-0.67,2.26-1.37,3.41-2.01c5.14-2.87,5.23-2.9,7.85,2.77
		c12.91,27.97,29.12,53.92,48.06,78.16c29.52,37.77,64.5,69.84,103.14,98.03c8.1,5.91,16.33,11.63,24.95,17.76
		c-4.44,7.3-8.83,14.38-13.09,21.53c-28.76,48.25-46.8,100.26-55.25,155.76C1441.09,758.33,1442.01,812.09,1447.34,865.93z"/>
	<path d="M604.4,903.53c3.14-0.78,4.51-3.42,6.22-5.77c16.9-23.31,33.83-46.6,50.76-69.89c0.46-0.63,1.04-1.17,2.27-2.55
		c3.65,3.78,7.29,7.42,10.78,11.2c8.95,9.71,17.77,19.55,26.76,29.23c11.33,12.2,22.74,24.33,34.19,36.42
		c4.77,5.03,4.91,4.99,8.96-1.01c24.86-36.77,49.71-73.55,74.55-110.34c5.6-8.29,5.58-8.3,11.1-0.13
		c24.7,36.56,49.39,73.12,74.13,109.66c1.3,1.91,2.24,4.19,5.45,5.95c38.73-58.05,77.49-116.13,117.03-175.4
		c39.37,59.01,78.12,117.08,117.65,176.33c14.98-20.96,28.35-41.67,42.26-62c13.87-20.26,27.54-40.64,41.28-60.94
		c3.6,0.45,4.32,3.38,5.68,5.39c24.62,36.3,49.15,72.65,73.71,108.99c0.74,1.09,1.52,2.17,2.28,3.25c3.66,5.19,3.82,5.33,7.99,0.86
		c17.84-19.13,35.56-38.37,53.37-57.53c6.09-6.56,12.31-13,19.03-20.09c3.92,5.37,7.46,10.17,10.96,15
		c15.82,21.81,31.63,43.63,47.45,65.44c1.06,1.47,1.88,3.23,3.95,3.63c5.42,37.28,10.85,74.56,16.23,111.84
		c0.26,1.82,0.15,3.68,0.22,5.53c-20.03-9.76-41.15-14.55-63.47-14.08c-21.83,0.46-42.87,5.22-63.48,11.94
		c-20.3,6.62-40.4,13.87-60.67,20.63c-16.27,5.42-32.84,10.11-49.95,11.53c-21.39,1.77-42.69,0.24-63.6-5.16
		c-22.79-5.88-44.44-15.04-66.52-22.96c-24.48-8.78-49.5-14.61-75.72-14.39c-26.75,0.22-52.16,6.71-77.03,15.88
		c-28.91,10.66-57.37,22.87-88.47,26.11c-13.96,1.45-27.92,1.69-41.86-0.08c-20.78-2.64-40.61-8.98-60.28-15.86
		c-28.11-9.84-55.95-20.59-85.55-25.34c-14.89-2.39-29.79-3.15-44.89-1.12c-13.73,1.85-26.71,5.88-39.45,11.01
		c0.59-14.77,3.9-29.19,5.8-43.8c2.67-20.62,5.87-41.17,8.81-61.75C603.08,913.95,603.71,908.74,604.4,903.53z"/>
	<path d="M1475.12,1155.29c-33.11-15.14-67.43-18.1-102.86-10.4c-25.08,5.45-49.01,14.69-73.43,22.3
		c-15.39,4.8-30.88,9.23-46.81,11.78c-26.55,4.26-52.66,1.36-78.5-5.37c-17.88-4.66-35.39-10.53-52.98-16.1
		c-22.43-7.1-45.04-13.42-68.51-15.96c-27.87-3.01-55.29-0.57-82.34,6.88c-22.93,6.32-45.06,15.02-67.75,22.02
		c-18.74,5.78-37.77,9.91-57.43,11.03c-22.44,1.28-44.21-2.51-65.83-7.88c-22.56-5.61-44.43-13.45-66.54-20.53
		c-13.81-4.43-27.71-8.45-42.1-10.79c-26.17-4.26-51.52-1.51-76.28,7.65c-4.45,1.65-8.83,3.52-13.24,5.28
		c-1.99-12.72-1.86-25.51-1.28-38.32c19.9-10.48,40.82-17.12,63.56-17.26c16.54-0.11,32.55,2.93,48.39,7.35
		c22.89,6.4,45.09,14.94,67.84,21.76c18.72,5.61,37.56,10.78,57.14,12.34c25.87,2.06,51.04-1.83,75.86-9.05
		c23.57-6.85,46.6-15.37,70.27-21.91c31.71-8.75,63.74-11.83,96.45-7.43c22.32,3,43.94,8.83,65.43,15.29
		c22.48,6.76,44.71,14.42,67.81,18.97c19.28,3.8,38.62,5.59,58.25,2.82c17.06-2.41,33.51-7.16,49.87-12.3
		c21.65-6.8,42.88-14.9,64.88-20.58c20.59-5.32,41.34-8.45,62.72-5.78c17.28,2.16,33.32,7.86,48.79,15.54
		c0.76,11.7,0.17,23.41-0.11,35.11C1476.36,1153.06,1476.22,1154.36,1475.12,1155.29z"/>
	<path d="M1471.79,1052.21c2.37,13.61,3.62,27.31,3.68,41.13c-16.82-7.31-34.15-12.63-52.54-14.26
		c-24.98-2.21-48.92,2.65-72.54,10.07c-24.18,7.6-48.1,15.99-72.64,22.49c-35.15,9.31-70.29,11.06-105.73,2.05
		c-20.77-5.28-40.81-12.81-61.1-19.59c-21.34-7.13-42.97-13.07-65.52-14.93c-31.04-2.55-61.1,2.26-90.61,11.73
		c-21.12,6.78-41.85,14.76-63.25,20.67c-28.09,7.76-56.48,10.59-85.46,5.8c-22.23-3.68-43.79-9.8-65.17-16.73
		c-19.09-6.19-37.98-13.02-57.55-17.64c-20.83-4.92-41.8-5.98-62.93-2.25c-13.87,2.45-27.06,7.12-40.02,12.49
		c-0.01-13.8,1.62-27.45,3.64-41.07c1.94-0.83,3.88-1.63,5.8-2.5c23.71-10.68,48.34-14.42,74.18-10.6
		c14.96,2.21,29.41,6.21,43.73,10.82c21.35,6.87,42.55,14.18,64.07,20.6c40.46,12.07,80.68,11.88,120.91-0.7
		c17.38-5.44,34.72-10.98,52.07-16.5c20.67-6.57,41.66-11.81,63.3-13.77c29.26-2.65,57.92,0.97,86.18,8.74
		c23.94,6.58,47.23,15.16,71.06,22.1c37.94,11.05,75.76,12.2,114.04,1.35c23.13-6.56,45.81-14.4,68.67-21.75
		c16.86-5.42,33.9-10.1,51.59-11.78C1425.05,1035.76,1448.99,1041.13,1471.79,1052.21z"/>
	<path d="M978.04,1731.77c-0.36,6.28-0.81,12.55-1.07,18.83c-0.22,5.28-0.44,10.57-0.24,15.84c0.15,4.12-1.8,4.73-5.31,4.68
		c-3.47-0.05-4.5-1.28-4.36-4.69c0.73-17.68,1.31-35.37,1.8-53.05c0.08-2.89,0.79-4.12,4-4.25c11.18-0.45,11.38-0.39,13.37,10.87
		c1.65,9.35,3.38,18.68,5.1,28.14c2.49-0.51,2.47-2.48,2.88-4.09c2.37-9.46,4.73-18.92,7.01-28.4c0.81-3.36,1.94-5.45,6.22-5.19
		c12.78,0.78,10.44-1.2,10.21,10.65c-0.3,15.31-0.98,30.62-1.55,45.93c-0.21,5.5-0.61,5.56-6,5.47c-3.44-0.06-3.73-1.67-3.61-4.46
		c0.45-10.29,0.71-20.59,1.03-30.88c0.05-1.55,0.01-3.1,0.01-5.77c-2.96,2.91-2.77,5.87-3.42,8.33c-2.42,9.17-4.65,18.4-6.66,27.66
		c-0.74,3.38-1.99,4.94-5.74,4.85c-3.85-0.1-5.63-1.34-6.23-5.3c-1.75-11.7-3.85-23.35-5.81-35.02
		C979.12,1731.87,978.58,1731.82,978.04,1731.77z"/>
	<path d="M1333.06,1673.69c0.97-1.13,1.68-1.83,2.26-2.63c4.96-6.86,4.57-15.29-1.05-22.6c-5.06-6.58-10.84-7.98-19.69-4.31
		c-6.07,2.52-11.88,5.67-17.98,8.12c-3.95,1.59-4.33,3.34-2.51,7.1c7.33,15.17,14.28,30.53,21.46,45.76
		c0.84,1.8,1.05,4.19,3.46,4.99c2.56-1.24,5.41-1.93,7.75-4.08c-2.49-7.99-7.6-14.93-9.62-22.91c4.71-3.89,8.93-2.73,13.15,0.38
		c4.88,3.6,9.82,7.11,14.76,10.6c1.44,1.02,2.8,2.84,4.86,1.64c2.77-1.6,6.44-1.83,8.56-5.05
		C1350.2,1684.45,1342.93,1677.5,1333.06,1673.69z M1325.99,1667.04c-4.12,2.74-8.55,4.99-13.52,6.31c-0.67-1-1.47-1.79-1.78-2.74
		c-1.18-3.64-5.72-7.43-3.59-10.58c2.65-3.92,8.26-5.23,13.04-6.46c4.02-1.04,6.24,1.7,7.76,5.1
		C1329.39,1661.98,1329.03,1665.02,1325.99,1667.04z"/>
	<path d="M726.81,1638.11c7.45,1,9.69,4.6,9.58,10.95c-0.18,10.02,0.48,20.06,0.86,30.09c0.06,1.7-0.63,3.56,1.06,5.66
		c3.68-5.42,5.78-11.29,8.48-16.82c2.76-5.64,5.35-11.37,8.11-17.26c1.48,0.54,2.46,0.81,3.36,1.23c5.17,2.38,5.25,2.43,2.97,7.38
		c-7.07,15.32-14.15,30.64-21.39,45.88c-0.85,1.78-0.87,5.02-4.55,4.15c-4.42-1.04-7.24-3.32-7.37-6.82
		c-0.24-6.07-0.13-12.15-0.35-18.22c-0.23-6.45-0.68-12.9-1.03-19.35c-0.51-0.11-1.03-0.23-1.54-0.34
		c-1.75,3.68-3.52,7.35-5.24,11.04c-2.79,5.97-5.62,11.93-8.3,17.95c-1.45,3.25-3.36,3.15-6.3,1.87c-3.15-1.36-3.87-2.9-2.4-6
		C710.84,1672.36,718.83,1655.17,726.81,1638.11z"/>
	<path d="M1179.71,1728.91c1.25-0.83,2.18-1.34,2.99-2c6.73-5.49,8.3-13.24,4.52-22.12c-3.16-7.42-8.13-10.13-17.25-8.87
		c-6.77,0.95-13.48,2.3-20.2,3.56c-5.07,0.94-5.16,1.02-4.18,6.15c2.18,11.38,4.38,22.76,6.76,34.1c1.48,7.08,1.9,14.44,4.8,21.34
		c1.41-0.34,2.43-0.6,3.45-0.83c5.76-1.26,5.83-1.29,4.72-7.15c-0.88-4.65-2.06-9.25-2.79-13.92c-0.87-5.53,2.22-7.92,7.26-5.54
		c1.84,0.87,3.45,2.42,4.86,3.95c2.85,3.1,5.9,6.15,8.13,9.68c3.86,6.1,8.62,8.7,15.65,5.89c0.7-0.28,1.57-0.29,1.52-2.02
		C1194.12,1743.69,1188.83,1735.15,1179.71,1728.91z M1174.79,1720.72c-4.19,1.49-8.52,2.48-12.97,2.8
		c-0.26,0.02-0.63,0.09-0.77-0.04c-3.36-3.06-2.72-7.43-3.67-11.29c-0.69-2.8,1.03-3.83,3.22-4.33c2.8-0.64,5.63-1.12,8.47-1.56
		c6.15-0.95,9.56,2.02,9.44,8.47C1178.63,1717.36,1177.65,1719.7,1174.79,1720.72z"/>
	<path d="M908.42,1712.61c-0.21-8.19-3.99-12.48-13.58-14.93c-6.38-1.63-12.87-2.83-19.26-4.42c-3.74-0.94-5.15,0.53-5.88,4.09
		c-3.74,18.31-7.67,36.58-11.47,54.59c1.46,1.78,3.2,1.47,4.69,1.82c4.94,1.18,4.96,1.15,6.03-3.76c1.11-5.15,2.13-10.32,3.29-15.47
		c1.1-4.87,2.73-5.54,7.08-3.11c2.21,1.24,3.42,3.2,4.15,5.56c1.64,5.28,3.34,10.55,4.96,15.84c2.45,7.96,3.56,8.66,13.63,8
		c-2.6-9.4-4.06-19.04-9.83-28.04c1.47-0.63,2.14-1,2.86-1.22C903.88,1728.96,908.66,1722.16,908.42,1712.61z M890.18,1722.9
		c-4.81-0.79-9.93-0.81-14.39-3.45c0.1-0.98,0.08-1.75,0.27-2.47c1.02-3.75,0.18-9.14,3.34-10.89c4.1-2.27,9.1,0.71,13.56,1.91
		c3.8,1.02,5.11,4.07,4.46,8.09C896.74,1720.31,893.89,1723.51,890.18,1722.9z"/>
	<path d="M1514.62,1548.49c0.44-1.14,0.72-1.87,0.98-2.6c3.1-8.87,0.59-16.33-7.42-22.04c-6.91-4.93-12.25-4.57-20.05,1.75
		c-5.13,4.15-9.89,8.77-15.07,12.86c-3.07,2.41-2.96,4.07-0.43,6.92c11.24,12.63,22.26,25.47,33.38,38.21
		c1.36,1.55,2.38,3.57,4.84,3.88c2.26-1.75,4.68-3.38,6.41-6.33c-4.24-4.9-8.58-9.84-12.84-14.86c-3.57-4.21-2.72-6.91,2.57-8.15
		c2.65-0.63,5.26-0.07,7.77,0.81c3.99,1.39,8.25,2.32,11.85,4.38c6.83,3.92,11.85,2.11,16.18-3.72c0.16-0.21,0.25-0.45,0.63-1.18
		C1534.45,1553.99,1525.34,1550.19,1514.62,1548.49z M1504.71,1545.49c-9.11,10.67-9.78,10.6-20.44-2.8c3.61-3.1,6.65-6,10.01-8.52
		c4.16-3.11,7.18-2.73,10.36,0.78C1507.79,1538.43,1507.82,1541.85,1504.71,1545.49z"/>
	<path d="M787.36,1695.11c5.77,2.15,11.18,4.2,16.61,6.17c2.84,1.03,3.4,2.58,2.17,5.43c-2.19,5.07-4.1,10.27-5.9,15.49
		c-1.06,3.09-3.17,4.81-6.14,5.44c-22.01,4.72-37.67-8.51-34.2-30.13c1.62-10.1,5.68-19.25,13.59-26.16
		c10.32-9.03,21.65-7.64,31.65,0.11c4.15,3.22,6.44,7.77,6.43,13.05c-0.01,2.46,1.78,6.27-2.85,6.83c-3.99,0.48-6.93-1.64-7.85-5.27
		c-2.55-10.02-13.31-13.77-20.78-6.63c-7.84,7.49-11.36,17.23-9.52,28.08c1.61,9.46,11.82,11.89,19.41,8.99
		c2.51-0.96,2.82-3.7,3.43-5.93c0.55-2-1.25-2.49-2.65-3.18C783.35,1703.73,783.36,1703.72,787.36,1695.11z"/>
	<path d="M1063.28,1743.84c-6.03,4.82-8.74,10.94-7.42,18.7c0.22,1.29,0.14,2.63,0.14,3.95c0.01,5.59,0,5.61-5.56,5.78
		c-1.3,0.04-2.6-0.14-4.09-0.22c-0.24-1.15-0.6-2.15-0.63-3.16c-0.66-17.66-1.29-35.32-1.87-52.99c-0.06-1.72-0.99-4.12,1.17-4.94
		c2.43-0.91,5.25-1.01,7.76-0.11c1.8,0.64,1.39,2.64,1.4,4.14c0.06,6.59,0.03,13.18,0.03,19.55c3.29,1.26,3.7-1.24,4.62-2.5
		c3.9-5.31,7.98-10.54,11.29-16.22c3.02-5.19,6.85-7.65,12.82-6.73c1.27,0.2,2.59,0.03,4.68,0.03c-3.9,7.23-8.71,13.09-13.43,18.91
		c-3.31,4.08-3.6,7.17-0.7,11.72c6.19,9.73,11.69,19.9,17.08,29.2c-0.11,1.54-0.48,1.73-1.14,1.77c-10.9,0.65-10.88,0.65-16.03-9.15
		c-2.94-5.59-5.95-11.15-8.96-16.7C1064.2,1744.44,1063.67,1744.18,1063.28,1743.84z"/>
	<path d="M1107.25,1717.54c1.22,13.75,1.22,13.75,14.25,11.71c2.6-0.41,5.23-0.65,7.82-1.13c3.21-0.59,4.71,0.49,5.22,3.87
		c0.8,5.33,0.85,5.7-4.73,6.6c-5.2,0.84-10.44,1.57-15.7,1.91c-3.71,0.24-4.16,1.96-3.82,5.14c1.3,12.3,1.22,12.3,13.52,10.78
		c4.45-0.55,8.89-1.17,13.35-1.56c4.54-0.39,2.71,3.55,3.53,5.62c0.91,2.31,0.62,3.99-2.47,4.37c-10.47,1.29-20.92,2.67-31.36,4.18
		c-4,0.58-4.16-1.94-4.49-4.72c-1.6-13.63-3.27-27.26-4.92-40.88c-0.48-3.93-0.93-7.86-1.46-11.79c-0.33-2.46,0.17-3.88,3.12-4.18
		c9.44-0.96,18.83-2.33,28.27-3.28c5.64-0.57,6.14,0.22,6.43,5.87c0.14,2.65-0.66,3.52-3.35,4.01
		C1122.96,1715.43,1115.23,1715.22,1107.25,1717.54z"/>
	<path d="M922.73,1703.2c11.02,1.4,21.96,2.93,32.94,4.1c3.39,0.36,3.99,1.93,3.29,4.65c-0.64,2.49,0.36,6.24-4.59,5.5
		c-6.25-0.93-12.58-1.37-18.86-2.15c-3.05-0.38-4.64,0.13-5.19,3.8c-1.44,9.63-1.67,9.57,7.89,10.53c3.67,0.37,7.33,0.82,10.97,1.39
		c1.72,0.27,4.26-0.54,4.88,1.57c0.73,2.52,0.03,5.25-1.09,7.68c-0.72,1.56-2.25,0.96-3.5,0.83c-5.77-0.62-11.55-1.16-17.29-1.95
		c-3.44-0.47-4.86,0.83-4.86,4.2c0,1.57-0.31,3.15-0.52,4.72c-1,7.55-1,7.55,6.9,8.44c5.24,0.59,10.47,1.33,15.72,1.74
		c3.22,0.25,5.1,1.08,4.02,4.81c-0.78,2.7,0.61,6.75-4.87,5.88c-9.63-1.53-19.3-2.96-29.01-3.83c-4.53-0.41-4.96-2.37-4.49-6.06
		c1.93-14.92,3.62-29.88,5.61-44.79C921.19,1710.68,920.71,1706.86,922.73,1703.2z"/>
	<path d="M699.48,1661.07c-4.2-2.38-7.62-4.31-11.04-6.26c-3.42-1.95-6.83-3.93-10.83-6.23c-2.76,4.67-5.39,9.13-8.54,14.45
		c6.45,3.75,12.78,7.41,19.07,11.1c5.71,3.35,5.59,3.51,2.29,8.83c-1.72,2.77-3.28,2.67-5.76,1.21
		c-8.62-5.08-17.3-10.07-26.02-14.98c-2.53-1.43-3.25-2.91-1.67-5.61c9.18-15.7,18.29-31.44,27.3-47.23
		c1.49-2.61,2.82-2.3,5.01-1.01c9.51,5.62,19.1,11.08,28.53,16.52c-0.09,0.92,0,1.49-0.21,1.92c-3.85,7.78-3.87,7.79-11.26,3.54
		c-4.57-2.62-9.19-5.17-13.65-7.97c-2.39-1.5-3.84-1.07-4.95,1.39c-0.21,0.48-0.56,0.89-0.83,1.34c-4.48,7.3-4.48,7.31,2.81,11.53
		c3.65,2.11,7.19,4.44,10.99,6.25c3.62,1.72,3.86,3.74,1.62,6.69C701.42,1657.77,700.68,1659.16,699.48,1661.07z"/>
	<path d="M1411.41,1629.39c5.03,7.21,9.97,14.3,14.87,21.33c-7.62,6.89-7.62,6.88-12.84-0.6c-9.98-14.29-19.97-28.57-30.18-43.18
		c1.86-2.68,4.66-3.99,7.98-6.15c3.8,5.38,7.62,10.65,11.27,16.02c1.76,2.59,3.31,3.61,6.23,1.27c3.89-3.11,8.14-5.76,12.83-9.02
		c-4.61-6.75-9.01-13.19-13.37-19.57c7.52-6.83,7.52-6.84,12.72,0.59c9.09,12.98,18.19,25.96,27.25,38.95
		c1.03,1.47,2.46,2.74,2.69,4.67c-7.37,6.42-7.37,6.42-12.58-1.02c-0.45-0.65-0.87-1.33-1.37-1.94c-3.3-4.01-4.9-11.08-9.69-11.69
		c-4.68-0.6-8.65,5.26-13.12,7.98C1413.24,1627.56,1412.55,1628.38,1411.41,1629.39z"/>
	<path d="M579.86,1614.12c-2.93-0.51-3.99-2.25-5.58-3.1c-3.32-1.79-3.07-4.12-1.88-7.25c3.59-9.46,3.47-9.51-4.2-15.81
		c-7.59-6.24-7.59-6.24-15.59-0.96c-5.03,3.32-5.03,3.32-12.01-4.34c16.79-11.01,33.61-21.86,50.22-33.04
		c3.4-2.29,5.27-0.72,7.52,1.19c2.13,1.81,4.55,2.97,2.97,6.97C593.97,1576.4,587.03,1595.18,579.86,1614.12z M587.62,1563.93
		c-6.11,3.6-12.25,6.86-17.72,11.99c3.55,2.88,6.53,5.31,9.91,8.06C583.45,1577.37,585.67,1570.81,587.62,1563.93z"/>
	<path d="M1496.96,1592.52c-14.71-10.26-29.49-20.42-44.1-30.82c-3.22-2.3-5.49-2.7-8.94-0.18c-3.79,2.75-3.95,5.19-2.44,9.31
		c6.01,16.32,11.6,32.78,17.38,49.19c0.68,1.91,0.76,4.18,2.89,5.32c7.96-5.14,7.96-5.14,5.02-13.42c-0.09-0.25-0.16-0.51-0.29-0.74
		c-2.12-3.69-1.23-6.44,2.48-8.46c1.14-0.63,2.12-1.57,3.18-2.36c8.19-6.15,8.26-6.24,17.05-0.44c2.55,1.68,4.57,2.34,6.92-0.04
		c1.43-1.45,3.7-2.05,4.5-4.52C1499.43,1594.44,1498.23,1593.41,1496.96,1592.52z M1461.09,1595.64c-3.17-6.8-5.34-12.81-7.51-20.27
		c7.37,3.28,12.3,7.9,18.14,12.22C1468.08,1590.36,1464.98,1592.7,1461.09,1595.64z"/>
	<path d="M1261.32,1672.69c-2.26-3.02-4.24-3.84-7.95-2.58c-3.86,1.3-5.49,2.99-5.34,7.26c0.62,17.95,0.89,35.92,1.33,53.89
		c0.04,1.53-0.28,3.2,0.87,4.53c9.18-1.21,9.06-1.21,9.07-9.55c0-7.8-1.79-6.89,6.87-9.78c0.75-0.25,1.45-0.64,2.2-0.9
		c9.36-3.22,9.5-3.32,15.7,4.7c2.09,2.72,4.13,4.11,7.25,2.37c1.72-0.95,4.42-0.32,5.23-3.35
		C1284.87,1703.87,1272.99,1688.35,1261.32,1672.69z M1259.36,1707.63c-2.27-7.04-0.79-14.01-1.05-20.99
		c4.96,5.18,9.26,10.43,12.66,16.56C1267.27,1705.5,1263.48,1706.27,1259.36,1707.63z"/>
	<path d="M1363.76,1620.92c-2.02-1.89-3.57-1.42-5.61-0.44c-5.88,2.86-6.23,3.39-5.11,9.54c0.43,2.33,0.98,4.64,1.45,6.96
		c3.31,16.52,6.61,33.03,10.01,50.07c9.62-4.11,9.82-4.16,8.5-9.76c-2.67-11.32-2.12-8.6,6.34-13.81c0.9-0.56,1.83-1.06,2.76-1.54
		c7.37-3.73,5.59-4.49,11.92,1.41c5.46,5.09,5.43,5.11,11.84,1.46c0.89-0.51,2.02-0.75,2.12-2.73
		C1393.44,1648.57,1378.53,1634.82,1363.76,1620.92z M1369.09,1656.94c-2.76-6.77-3.37-13.73-5.24-21.53
		c6.6,4.67,11.25,9.78,16.41,15.23C1376.81,1653.54,1373.13,1655.13,1369.09,1656.94z"/>
	<path d="M1561.18,1458.95c-4.2-2.01-6.11,0.12-8.66,2.67c-2.52,2.52-2.56,4.46-0.8,7.51c9.22,15.99,18.17,32.14,27.25,48.22
		c0.71,1.28,1.09,3.12,3.22,2.92c6.55-6.33,6.55-6.33,2.43-13.48c-3.31-5.73-3.31-5.73,1.15-10.59c1.07-1.17,2.17-2.31,3.25-3.46
		c5.96-6.35,6.07-6.54,14.24-2.54c3.65,1.78,6.36,2.02,8.83-1.52c0.9-1.27,2-2.4,3.63-4.32
		C1596.96,1475.66,1578.99,1467.45,1561.18,1458.95z M1575.96,1490.96c-4.42-5.56-7.33-11.65-9.68-18.68
		c6.03,2.95,12.08,5.9,18.42,9C1582.49,1485.21,1579.43,1487.95,1575.96,1490.96z"/>
	<path d="M506.65,1550.76c-2.79-0.62-3.56-2.17-4.82-3.08c-3.16-2.28-3.12-4.73-1.44-8.17c4.28-8.77,4.09-8.87-2.82-15.52
		c-7.14-6.88-7.14-6.88-16.15-2.24c-4.91,2.53-5.05,2.47-10.97-5.67c10.67-5.77,21.28-11.51,31.89-17.25
		c6.95-3.76,13.98-7.39,20.83-11.34c3.4-1.96,5.35-0.3,7.47,1.94c1.96,2.07,4.15,3.5,2.27,7.26
		C523.96,1514.61,515.38,1532.7,506.65,1550.76z M499.99,1511.82c3.31,3.14,5.78,6.44,9.88,8.74c3.26-6.39,6.37-12.5,10.32-20.24
		C512.29,1504.26,506.19,1507.44,499.99,1511.82z"/>
	<path d="M835,1693.84c-3.43-2.5-6.68-2.84-9.68-3.58c-3.33-0.82-4.37-2.06-3.41-5.46c1.64-5.8,1.53-5.93,7.34-4.31
		c9.37,2.61,18.67,5.46,28.07,7.94c3.68,0.97,5.55,2.04,3.85,6.4c-1.91,4.9-1.54,5.04-6.42,3.78c-9.71-2.51-9.72-2.51-12.41,6.87
		c-3.33,11.65-6.63,23.31-9.96,34.97c-0.49,1.72-0.61,4.41-2.67,4.28c-2.5-0.16-5.37-0.54-7.39-2.41c-1.43-1.32-0.2-2.94,0.21-4.39
		c3.46-12.17,6.92-24.33,10.38-36.5C833.61,1698.92,834.29,1696.41,835,1693.84z"/>
	<path d="M1229.18,1679.37c1.57,1.26,1.51,2.68,1.89,3.91c1.71,5.65,1.7,5.66-3.93,7.42c-1.25,0.39-2.51,0.8-3.8,1.04
		c-4.13,0.79-4.63,3.04-3.49,6.81c3.93,13.1,7.62,26.27,11.32,39.43c1.32,4.7,1.07,4.36-3.91,6.26c-4.08,1.56-5.01-0.43-5.89-3.54
		c-3.65-12.91-7.34-25.81-11.06-38.7c-1.7-5.9-1.76-5.88-7.95-4.15c-0.76,0.21-1.53,0.38-2.3,0.58c-6,1.65-6.18,1.31-7.85-4.8
		c-0.79-2.88,0.23-3.88,2.53-4.54C1206.33,1685.81,1217.91,1682.55,1229.18,1679.37z"/>
	<path d="M631.25,1652.02c-2.9-1.98-5.85-3.12-8.04-5.88c7.91-12.21,15.82-24.37,23.67-36.56c4.24-6.59,4.82-5.52-2.01-9.97
		c-1.98-1.29-3.92-2.64-5.99-4.05c0.77-3.34,2.88-5.66,5.27-8.83c11.01,7.14,21.96,14.23,32.94,21.34c-0.97,3.5-2.88,5.95-4.97,8.47
		c-2.82-0.4-4.66-2.4-6.81-3.73c-5.89-3.63-5.9-3.7-9.55,1.88c-6.65,10.17-13.25,20.36-19.88,30.54
		C634.45,1647.41,632.95,1649.52,631.25,1652.02z"/>
	<path d="M553.24,1526.12c-1.64-2.9-4.2-4.4-6.26-6.4c-4.36-4.22-4.4-4.19-0.46-8.61c0.85-0.96,1.6-2.07,3.69-2.47
		c9.42,8.47,19.15,17.22,28.84,25.94c-6.38,8.12-6.37,8.12-13.55,1.77c-1.18-1.04-2.42-2.02-4.35-3.62
		c-11.27,12.45-22.54,24.89-33.85,37.37c-3.35-1.23-5.24-3.73-7.77-6.4C530.83,1551.1,542.06,1538.58,553.24,1526.12z"/>
	<path d="M513.39,1471.64c-2.07,2.96-4.42,5.04-7.08,6.83c-3.05-1.8-5.19-4.55-7.38-7.15c-2.33-2.77-4.09-2.32-6.46-0.07
		c-9.21,8.72-18.55,17.32-27.84,25.95c-1.93,1.8-3.87,3.59-5.91,5.48c-3.17-1.41-4.6-4.34-7.4-6.82
		c12.62-11.83,24.89-23.34,37.42-35.09c-3.36-3.79-6.48-7.32-9.71-10.97c2.02-2.64,4.31-4.69,7.47-6.97
		C495.46,1452.44,504.44,1462.05,513.39,1471.64z"/>
	<path d="M1523.46,1492.47c1.81-2.26,3.67-4.44,6.21-5.87c2.32,0.52,3.47,2.42,4.92,3.91c7.55,7.77,15.05,15.59,22.57,23.39
		c2.57,2.67,5.07,5.39,6.96,8.61c4.83,8.19,3.3,15.91-4.26,21.63c-6.46,4.89-15.26,3.53-21.42-2.98c-2.19-2.32-0.89-3.8,0.55-5.33
		c1.41-1.49,2.08-4.87,5.37-2.56c1.08,0.76,2.11,1.65,3.29,2.19c2.61,1.19,5.2,1.17,7.21-1.2c1.99-2.35,1.73-4.93,0.01-7.28
		c-1.56-2.12-3.27-4.15-5.09-6.05c-7.12-7.45-14.34-14.81-21.45-22.27C1526.52,1496.78,1524.26,1495.21,1523.46,1492.47z"/>
	<path d="M1114.26,733.38c-8.27-6.09-16.11-11.85-23.94-17.64c-19.12-14.13-38.23-28.27-57.37-42.38c-4.99-3.68-5.03-3.66-10-0.03
		c-26.23,19.18-52.44,38.37-78.67,57.55c-1.26,0.92-2.58,1.74-5.1,3.43c2.43-9.05,4.48-16.8,6.6-24.53
		c6.9-25.19,13.68-50.42,20.87-75.53c1.39-4.86,0.34-7.7-3.35-10.82c-20.96-17.77-41.75-35.73-62.58-53.65
		c-1.91-1.64-3.7-3.43-6.77-6.28c4.13,0,6.67,0,9.2,0c26.95,0,53.91,0.03,80.86-0.02c6.65-0.01,6.13,1.16,8.75-6.33
		c10.61-30.39,21.2-60.79,31.9-91.15c0.92-2.62,1.04-5.75,3.85-7.9c11.3,32.61,22.52,64.99,33.74,97.37
		c0.52,1.5,1.19,2.96,1.53,4.49c0.65,2.93,2.57,3.71,5.26,3.56c1.58-0.09,3.17-0.01,4.76-0.01c26.42,0,52.85,0,79.27,0
		c2.52,0,5.04,0,9.43,0c-10.24,8.4-18.94,15.55-27.65,22.68c-15.13,12.39-30.15,24.9-45.47,37.05c-4.1,3.25-5.25,5.96-3.6,11.26
		c9.64,30.98,18.8,62.12,28.13,93.19C1114.37,729.19,1115.12,730.63,1114.26,733.38z"/>
	<path d="M1153.95,1328.85c1.01,15.43-0.7,30.57-5.48,45.31c-10.79,33.27-37.55,53.76-72.39,55.53c-14.31,0.73-28.52,0.26-42.5-3.09
		c-7.58-1.82-14.61,1.22-21.89,2.04c-16.35,1.84-32.7,2.58-48.79-1.6c-30.87-8.01-49.11-28.64-57.06-58.81
		c-5.02-19.05-5.36-38.44-3.71-58.12c1.56-18.58,7.66-34.89,19.21-49.32c10.89-13.61,24.47-23.98,39.6-32.42
		c2.04-1.14,4.4-1.77,6.67-2.39c16.08-4.43,31.63-10.29,46.59-17.63c9.5-4.66,18.66-4.57,28.09,0.16
		c13.95,6.99,28.48,12.59,43.54,16.68c6.47,1.76,12.31,4.58,17.86,8.24c13.35,8.79,25.23,19.14,34.61,32.2
		c9.5,13.22,14.69,28,15.6,44.2C1154.24,1316.16,1153.95,1322.51,1153.95,1328.85z"/>
</g>
</svg>
